<svg width="1316" height="262" fill="none" xmlns="http://www.w3.org/2000/svg"><mask id="b" style="mask-type:alpha" maskUnits="userSpaceOnUse" x="0" y="0" width="1312" height="254"><rect width="1312" height="254" rx="16" fill="url(#a)"/></mask><g mask="url(#b)"><path d="M769.643 64.172c62.828-73.034 140.229-81.958 171.076-77.29L1571-26v303H450c141.063-29.684 241.108-121.536 319.643-212.828Z" fill="#566B80"/><path fill-rule="evenodd" clip-rule="evenodd" d="M868.298 179.246c.735.132 1.176 2.736 1.368 4.25.353.654.62 1.351.794 2.074.032.205.032.413 0 .618a136.828 136.828 0 0 0 15.854 5.03 37.284 37.284 0 0 0 17.164.25c2.338.544 1.632 7.633.691 7.824-2.721.662-11.383.177-19.62-2.809a81.846 81.846 0 0 1-15.884-7.883c-.219.03-.442.03-.661 0a19.887 19.887 0 0 1-4.06-1.25c-3.368-.147-4.412-.339-4.412-.75-.132-.824 2.221-.442 3.854-.589.353 0 .382-.22.25-.279-1.618-1.044-5.001-1.956-4.604-2.78.721-.926 5.045 1.78 4.986 1.221.471-.265-4.912-3.265-4.236-4.265.677-1 5.501 3.809 5.78 3.368.28-.441-3.029-4.133-2.176-4.515.853-.383 2.309 2.382 3.735 3.956.074 0 .397.632.897.426-.25-1.691-.294-4.029.368-3.926l-.088.029Z" fill="#FBD6A0"/><path fill-rule="evenodd" clip-rule="evenodd" d="M868.666 188.6a81.837 81.837 0 0 0 15.972 7.883 52.877 52.877 0 0 0 15.619 3.059h2.044c-1.117-4.795-1.662-7.53-1.662-7.53l-.176 1.676c-.03 1.345.153 2.685.544 3.971-.617.032-1.236.032-1.853 0a52.174 52.174 0 0 1-12.443-1.867 66.108 66.108 0 0 1-16.472-6.986c-.22-.265 0-1.236 0-1.236a7.345 7.345 0 0 1-2.574.294 5.875 5.875 0 0 1-2.941-.985c-.82.028-1.641-.006-2.456-.103-.809-.088-1.868-.191-2.75-.309a.202.202 0 0 0 0 .133c0 .411 1.103.603 4.412.75 1.304.56 2.665.979 4.059 1.25.224.031.452.031.677 0Z" fill="#F5CA8C"/><path fill-rule="evenodd" clip-rule="evenodd" d="M896.609 164.377c2.001 23.649 15.443 41.827 5.148 62.3 58.035-3.956 52.064-77.949 37.533-90.421-8.089-6.927-16.546-6.501-22.737-4.897-14.634 3.765-22.017 9.442-19.944 33.018Z" fill="#763A20"/><path fill-rule="evenodd" clip-rule="evenodd" d="m1180.68 107.547 5.22 22.341 7.21 44.254s4.54 12.355 4.54 13.678a25.44 25.44 0 0 1-3.76 8.825c-1.28 1.279-3.16 3.059-3.93 2.044-.76-1.015 1.77-3.397 1.81-3.986.05-.588.74-3.103.83-3.588a41.942 41.942 0 0 0-1.08-4.692c-.97-1.206-1.78-1.632-2.67-.073 0 0-1.02 5.765-2.2 5.882-1.17.118-.56-6.427-.14-8.662.41-2.236.97-3.295.97-3.706 0-.412-.09-2.457-.15-4.163l-11.96-44.637-5.88-20.59 11.19-2.927Z" fill="#FBD6A0"/><path fill-rule="evenodd" clip-rule="evenodd" d="M1186.46 192.071c-.89-.647-.34-6.501 0-8.604.34-2.103.97-3.295.97-3.706 0-.412-.08-2.456-.14-4.163l-11.96-44.636-3.34-11.531 8.93-.809-4.41 5.089 13.35 51.476s-2.01 6.397-2.94 10.692c-.4 2.038-.56 4.117-.46 6.192Z" fill="#E8BD80"/><path fill-rule="evenodd" clip-rule="evenodd" d="M1055.82 177.055c2.22 26.899-6.46 63.55-6.46 63.55-2.51 5.133-2.72 29.415-4.99 54.565a39.64 39.64 0 0 1-7.53.838c-.61-10.766-5.45-37.342-2.67-55.888-.72-4.618-1.77-61.08-1.77-61.08l23.42-1.985Z" fill="#FBD6A0"/><path fill-rule="evenodd" clip-rule="evenodd" d="M1056.99 40.232c10.68 24.017-6.06 70.022-11.19 68.154l-12.85-4.663 1.47-50.49 22.57-13.001Z" fill="#763A20"/><path fill-rule="evenodd" clip-rule="evenodd" d="M1003.31 56.292c0 14.31 2.12 30.886 12.08 47.064l17.56.382.54-68.036c-5.98 4.088-30.21 13.442-30.18 20.59Z" fill="#763A20"/><path fill-rule="evenodd" clip-rule="evenodd" d="M1019.87 178.143c-1.29 1.662-8.98-4.515-8.98-4.515-3.98 12.339.33 40.901.76 65.609 0 0 .52 52.859 1.47 55.432 2.21 0 7.46.133 7.46.133 1.84-18.208 5.97-34.474 5.5-54.624l7.46-64.065-13.67 2.03Z" fill="#FBD6A0"/><path fill-rule="evenodd" clip-rule="evenodd" d="M1056.6 104.238c.97-1.059 4.17-5.883 4.17-5.883l10.02 15.649s-7.83 15.384-8.06 14.869c-.24-.515-8.99-11.089-8.99-11.089l2.86-13.546Z" fill="#AE4283"/><path fill-rule="evenodd" clip-rule="evenodd" d="M1009.14 164.862c-5.31 14.943-2.43 24.782 1.28 73.993l40.62-.78c6.25-27.399 9.22-52.078 5.06-70.183l-46.96-3.03Z" fill="#231916" stroke="#231916" stroke-width=".22" stroke-miterlimit="22.93"/><path fill-rule="evenodd" clip-rule="evenodd" d="M1036.48 95.81c-5.02.104-16.61.619-16.61.619l-14.71 1.676c.67 16.046-.48 15.472 6.15 36.548 3.34 16.502-4.79 18.075-5.41 38.239 14.27 1.898 31.39 3.986 52.2.662 1-18.531-5.71-20.943-2.94-39.21 1.77-11.766 5.55-35.989 5.55-35.989l-11.63-1.926-12.6-.618Z" fill="#AE4283"/><path fill-rule="evenodd" clip-rule="evenodd" d="M1028.98 84.736c.5 9.222-4.2 10.295-9.14 11.766.9 2.942 9.28 4.677 14.64 4.236 5.34.441 13.72-1.368 14.7-4.236-4.94-1.382-11.11-2.294-10.6-11.501l-5.52-.074-4.08-.19Z" fill="#FBD6A0"/><path d="M1033.49 87.59c12.92 0 23.4-11.616 23.4-25.944 0-14.329-10.48-25.944-23.4-25.944-12.92 0-23.4 11.615-23.4 25.944 0 14.328 10.48 25.943 23.4 25.943Z" fill="#FBD6A0"/><path fill-rule="evenodd" clip-rule="evenodd" d="M1024.56 62.881a2.66 2.66 0 0 0 1.48-.465c.44-.298.78-.718.98-1.208.19-.49.24-1.026.14-1.544a2.745 2.745 0 0 0-.74-1.363 2.726 2.726 0 0 0-1.37-.724c-.52-.1-1.06-.046-1.55.157-.48.204-.9.547-1.19.986-.3.44-.45.956-.45 1.484 0 .354.07.703.21 1.03a2.729 2.729 0 0 0 1.46 1.449c.33.132.68.2 1.03.198Z" fill="#3E3A39"/><path fill-rule="evenodd" clip-rule="evenodd" d="M1023.33 60.116a.85.85 0 0 0 .46-.139.837.837 0 0 0 .35-.845.857.857 0 0 0-.23-.422.798.798 0 0 0-.42-.225.825.825 0 0 0-.99.808c0 .218.09.427.25.582.15.154.36.241.58.241Z" fill="#EEEEEF"/><path fill-rule="evenodd" clip-rule="evenodd" d="M1027.09 56.101a17.606 17.606 0 0 0-6.89.206c-2.46.794-3.59-.412-.47-1.647 2.36-.82 4.91-.967 7.35-.427 1.44.412 1.5 2.22.01 1.868Z" fill="#763A20"/><path fill-rule="evenodd" clip-rule="evenodd" d="M1026.8 74.823c.15 3.148 3.48 5.678 7.59 5.678 4.1 0 7.45-2.53 7.6-5.678h-15.19Z" fill="#4F2211"/><path fill-rule="evenodd" clip-rule="evenodd" d="M1028.33 74.823h12.13v1.471c0 .152-.06.298-.17.406a.551.551 0 0 1-.4.168h-10.91a.585.585 0 0 1-.23-.04.497.497 0 0 1-.18-.124.515.515 0 0 1-.13-.188.562.562 0 0 1-.04-.222l-.07-1.47Z" fill="#fff"/><path fill-rule="evenodd" clip-rule="evenodd" d="M1031.34 68.94c0 .971 1.33 1.736 2.87 1.736 1.55 0 2.83-.765 2.94-1.736h-5.81Z" fill="#DF9C72"/><path fill-rule="evenodd" clip-rule="evenodd" d="M1040.3 30.878c-15.41 13.413-25.75 35.592-36.03 40.563-12.283-30.445 11.69-51.123 36.03-40.563Z" fill="#763A20"/><path fill-rule="evenodd" clip-rule="evenodd" d="M1022.68 41.217c-7.51 10.413-13.37 11.942-10.29 46.108-11.77-17.06-12.3-39.019 12.01-50.55l-1.72 4.442Z" fill="#763A20"/><path fill-rule="evenodd" clip-rule="evenodd" d="M1028.39 30.878c-22.23 19.693 22.34 10.413 30.88 28.62 2.9-9.574-.78-35.93-30.88-28.62Z" fill="#763A20"/><path fill-rule="evenodd" clip-rule="evenodd" d="M1065.07 104.738c-2.12-1.956-12.25 5.766-8.66 13.237 3.58 7.471 14.7 29.253 19.76 34.665a239.827 239.827 0 0 0 33.43 30.371l.93-5.589s-26.21-31.474-26.81-32.621c-3.87-7.427-16.24-37.077-18.65-40.063Z" fill="#FBD6A0"/><path fill-rule="evenodd" clip-rule="evenodd" d="M1043.8 63.058a2.684 2.684 0 0 0 1.48-.466c.44-.297.77-.717.97-1.207.2-.49.25-1.027.14-1.544-.1-.517-.36-.992-.74-1.363a2.668 2.668 0 0 0-2.91-.567c-.49.203-.9.546-1.2.986a2.7 2.7 0 0 0-.45 1.484c.01.353.08.703.22 1.029.13.326.33.621.58.87a2.709 2.709 0 0 0 1.91.778Z" fill="#3E3A39"/><path fill-rule="evenodd" clip-rule="evenodd" d="M1042.55 60.263a.81.81 0 0 0 .45-.146.79.79 0 0 0 .3-.372c.06-.151.08-.316.04-.475a.773.773 0 0 0-.23-.418.794.794 0 0 0-.42-.221.83.83 0 0 0-.98.809c0 .109.02.217.07.318.04.101.1.192.18.27a.817.817 0 0 0 .59.236Z" fill="#EEEEEF"/><path fill-rule="evenodd" clip-rule="evenodd" d="M1039.87 55.704c2.65-.495 5.36-.45 7.99.132 2.87.897 4.16-.514.53-1.912a15.88 15.88 0 0 0-8.47-.397c-1.71.53-1.77 2.618-.05 2.177Z" fill="#763A20"/><path fill-rule="evenodd" clip-rule="evenodd" d="M1055.36 81.5c6.03-13.03 8.74-42.269-12.06-49.372 1.94 5.574 12.66 10.34 12.06 49.373Z" fill="#763A20"/><path fill-rule="evenodd" clip-rule="evenodd" d="m1107.62 106.827-5.21 22.34-8.07 44.858 6.17 2.574 12.43-46.358 5.93-20.561-11.25-2.853Z" fill="#FBD6A0"/><path fill-rule="evenodd" clip-rule="evenodd" d="m1102.79 168.098 10.14-37.857 2.82-9.722-6.3-1.353 1.58 2.942c-1.02 3.956-10.87 42.828-10.87 42.828l2.63 3.162Z" fill="#E8BD80"/><path fill-rule="evenodd" clip-rule="evenodd" d="M1120.47 171.113c-.85 3.824-.26 46.843.12 53.211.31 5.104 1.06 40.946.85 56.006 0 0-1.73 11.119-1.7 11.119l15.44 3.294c1.37-32.047 6.45-105.378 6.66-103.672.21 1.706 7.13 36.43 7.35 38.563.22 2.132 6 65.124 6 65.124s15.82-2.177 15.74-3.236c0-.25-2.94-10.913-2.94-10.913-1.1-15.825-1.87-49.446-1.85-51.299 0-2.397-.33-61.08-.33-61.08l-24.19 4.31-21.15-1.427Z" fill="#231916"/><path fill-rule="evenodd" clip-rule="evenodd" d="m1129.78 82.795-13.03 2.691c-1.91-.53-4.49 1.574-4.49 1.574l-9.14 30.739 13.32 2.941 1.47-4.78a602.54 602.54 0 0 1 .99 63.036c8.73 4.147 39 2.456 46.96-.794 1.13-26.65 2.51-47.814 3.82-64.095l2.84 9.501 11.5-6.662-7.97-29.165a7.17 7.17 0 0 0-4.04-1.648c-4.51-1.25-9.34-2.94-13.24-3.765-9.52-2.235-17.02-2.059-28.99.427Z" fill="#57B44B"/><path fill-rule="evenodd" clip-rule="evenodd" d="M1137.02 71.588c.51 9.486-2.7 10.5-7.78 11.942.92 2.942 9.56 4.81 15.06 4.412 5.5.456 14.12-1.47 15.06-4.412-5.09-1.47-8.68-2.456-8.15-11.942l-6.91.22-7.28-.22Z" fill="#F1BD83"/><path fill-rule="evenodd" clip-rule="evenodd" d="M1048.64 111.445c2.45 0 4.85.727 6.89 2.089a12.327 12.327 0 0 1 4.56 5.565c.94 2.265 1.19 4.758.71 7.163a12.434 12.434 0 0 1-3.39 6.348 12.444 12.444 0 0 1-6.35 3.393c-2.41.479-4.9.233-7.16-.705a12.382 12.382 0 0 1-5.57-4.567 12.415 12.415 0 0 1-1.15-11.635 12.383 12.383 0 0 1 2.69-4.024 12.39 12.39 0 0 1 4.02-2.687 12.4 12.4 0 0 1 4.75-.94Z" fill="#AE4283"/><path fill-rule="evenodd" clip-rule="evenodd" d="M1001.52 103.503c4.25-5.471 14.41 2.456 10.82 9.913-3.59 7.456-16.985 23.752-19.397 30.694-1.824 5.295-4.648 27.944-7.163 38.239-3.073 1.471-7.25-1.809-7.574-3.677 0 0 4.25-30.326 6.412-36.768 2.648-7.913 10.252-29.238 16.902-38.401ZM973.22 193.586c-3.515 2.588-7.618 4.75-12.413 7.942-5.324-9.163-11.133-12.487-11.133-12.487-2.706-.5-7.766 3.633-6.883 4.28 2.573 1.941 11.766 13.09 17.163 14.604 6.074-.794 13.855-8.103 16.987-11.354-.838-1.441-2.765-1.338-3.721-2.985Z" fill="#FBD6A0"/><path fill-rule="evenodd" clip-rule="evenodd" d="M974.206 182.761c-.927.412-.706 9.383-1.265 11.457 1.765.706 2.25 1.986 3.794 2.603 1.471-1.809 4.413-2.941 5.177-5.397 2.589-.706 4.824-1.559 4.413-2.442-.412-.882-3.045.662-4.898.956-.324-.853 5.412-4.294 4.236-5.25-.736-.589-4.192 2.5-5.383 3.044-.177-.368 4.603-5.751 3.633-6.192-.971-.441-4.089 3.692-5.236 5.045.191-1.986 1.294-5.692.5-5.662-.794.029-2.059 3.529-2.559 5.368 0 .088-.486 1.971-1.103 1.897-.192-1.956-.574-5.736-1.28-5.442l-.029.015Z" fill="url(#c)"/><path fill-rule="evenodd" clip-rule="evenodd" d="M1078.85 250.474c-.63 5.353-3.4 38.518-2.49 38.709.92.192 9.5 1.383 9.5 1.383s5.71-24.326 6.17-21.664c.45 2.662 4.06 21.12 4.7 21.487.65.368 9.3.177 9.3-.661 0-.839-1.84-35.842-1.84-35.842l-25.34-3.412Z" fill="#2E2E35"/><path fill-rule="evenodd" clip-rule="evenodd" d="M1077.2 215.014c-2.59-1.382-15.46-4.897-15.46-4.897-.44-1.647-6.56-7.707-10.29-10.943.47-1.423.69-2.914.66-4.412.15-2.735.59-4.883 0-5.221-.59-.338-2.12 3.956-2.12 3.956s-1.59-7.236-2.84-7.353c-1.25-.118 1.22 7.353 1.05 7.03-.18-.324-4.27-6.824-4.9-6.148-.63.677 2.47 6.56 2.38 6.883-.08.324-5.28-5.75-5.79-4.544-.52 1.206 4.5 5.633 4.12 5.883-.39.25-4.78-3.31-5.25-2.471-.47.838 4.56 4.647 4.56 4.647 1.11 1.633 2.42 3.28 4.3 3.618 2.64 3.78 8.26 11.575 11.21 13.708 3.97 2.853 12.89 7.353 13.24 6.603.35-.75 5.13-6.339 5.13-6.339ZM1104.57 213.573c2.59-1.383 15.46-4.898 15.46-4.898.44-1.632 6.56-7.706 10.29-10.942a13.48 13.48 0 0 1-.66-4.412c-.14-2.736-.59-4.898 0-5.221.59-.324 2.12 3.941 2.12 3.941s1.59-7.236 2.84-7.353c1.25-.118-1.22 7.353-1.05 7.044.18-.308 4.27-6.824 4.9-6.162.63.662-2.47 6.574-2.37 6.883.11.309 5.27-5.751 5.78-4.545.52 1.206-4.5 5.633-4.11 5.883.38.25 4.78-3.294 5.25-2.456.47.839-4.56 4.648-4.56 4.648-1.12 1.618-2.43 3.28-4.31 3.603-2.63 3.78-8.25 11.575-11.21 13.707-3.97 2.942-12.88 7.354-13.24 6.604-.35-.75-5.13-6.324-5.13-6.324Z" fill="#FBD6A0"/><path fill-rule="evenodd" clip-rule="evenodd" d="M1114.59 216.014a26.93 26.93 0 0 0 8.12-4.986c.95-.92 1.85-1.902 2.67-2.941l1.47-1.853c2.81-3.574 5.68-7.604 5.68-7.604.88.118 1.77-.086 2.52-.573a8.847 8.847 0 0 0 2.69-2.78l5.29-3.956v.279c-.38 1.191-4.57 4.412-4.57 4.412-1.12 1.618-2.43 3.28-4.31 3.604-1.63 2.353-4.41 6.235-7 9.368-.49.588-.97 1.162-1.47 1.691-.84.966-1.77 1.852-2.77 2.648a67.168 67.168 0 0 1-9.12 5.206l-1.25-4.177a1.554 1.554 0 0 0-.16-.514s1.62 2.176 2.21 2.176Z" fill="#F6C987"/><path fill-rule="evenodd" clip-rule="evenodd" d="m1084.2 215.602-14.04-3.162-2.8 9.251 8.94 6.119-.36 30.591 30.22-1.103s-4.15-29.944-2.85-30.312c1.29-.368 11.47-6.457 11.47-6.457l-2.81-9.765-14.15 4.574-13.62.264Z" fill="#B9A13E"/><path fill-rule="evenodd" clip-rule="evenodd" d="M1088.45 210.47s-.38 4.412-.75 4.412-4.41.5-4.41.5 1.27 5.765 6.97 5.765c5.71 0 7.97-5.662 7.97-5.662l-4.1-.368-.37-3.868-5.31-.779ZM917.906 240.34c-.368 4.721-2.559 21.282-2.942 23.106-.529 2.647-7.809 36.665-6.559 39.577.132.324 3.059-.162 3.059-.162s14.413-46.872 14.781-48.152c.368-1.279.544-11.104-1.28-12.192a34.783 34.783 0 0 0-7.059-2.177ZM938.82 243.826c0 2.368 4.103 19.443 7.192 32.724 3.088 13.281 5 25.37 6.088 25.37 1.237.166 2.451.472 3.618.912l-5.882-58.638-11.016-.368Z" fill="#FBD6A0"/><path fill-rule="evenodd" clip-rule="evenodd" d="M915.391 228.089c1.397 13.237-6.221 27.621-5.324 28.106 17.266 9.383 32.356 1.471 48.225-1.971-.544-.897-9.148-19.119-10.457-30.165l-32.444 4.03Z" fill="#EC7477"/><path fill-rule="evenodd" clip-rule="evenodd" d="M915.567 231.619c0 12.163-6.324 24.135-5.5 24.576a36.505 36.505 0 0 0 23.105 4.03c-5.03-2.574-13.766-6.619-14.457-7.236-1-.927-.368-9.59-.368-10.693 0-1.103 1.118-.191 10.045-1.294 8.928-1.103 20.032-7.354 20.032-7.354s-6.575-.603-7.869-.794l-24.826-1.647-.162.412Z" fill="#EB6B70"/><path fill-rule="evenodd" clip-rule="evenodd" d="M948.085 199.513c-.529 9.765.192 19.531 3.163 33.415a97.048 97.048 0 0 1-18.87 3.5c-9.825.736-18.928.956-18.928.956s1.25-9.707-1.074-28.576a308.1 308.1 0 0 0-1.088-8.045c-3.753.22-7.514.22-11.266 0l-1.177-9.016c10.722-2.559 21.135-5.28 24.179-6.427 10.604-1.309 13.031-2.059 24.4.353 3.676 2.824 6.691 5.677 11.868 12.722l-6.412 5.883s-3.324-3.324-4.795-4.765Z" fill="#796BAE"/><path fill-rule="evenodd" clip-rule="evenodd" d="M920.583 178.378c1.617 7.78-.589 7.354-4.413 9.281 6.825 8.236 19.488 4.294 20.738-3.207-7.354 0-5.016-.573-7.825-7.912l-8.5 1.838Z" fill="#F6CB8A"/><path fill-rule="evenodd" clip-rule="evenodd" d="M919.685 136.389c-11.648 1.323-19.899 12.883-18.413 25.796 1.485 12.913 12.089 19.767 23.738 18.429 11.648-1.339 19.928-10.296 18.443-23.238-1.486-12.943-12.105-22.252-23.768-20.987Z" fill="#FBD6A0"/><path fill-rule="evenodd" clip-rule="evenodd" d="M943.673 150.67c-2.177-.765-10.516-.236-19.325 1.117l-4.825-4.618c0 .309 1.471 2.942 2.633 4.957a118.545 118.545 0 0 0-12.192 2.662l-1.795-3.398.942 3.648c-4.736 1.47-8.207 3.044-8.825 4.78a45.124 45.124 0 0 1 0-15.09c2.912-14.855 39.534-23.003 43.387 5.942Z" fill="#763A20"/><path fill-rule="evenodd" clip-rule="evenodd" d="M978.971 174.113c-1.383 6.265-1.633 5.442-4.148 9.575-2.515 4.132-2.117 9.839-1.941 11.53.338 3.045 3.397 5.207 6.045 3.868 2.191-1.103 4.162-4.956 4.971-5.883 0 0 .456 3.398 1.75 1.192 1.294-2.207.735-14.708.735-14.708l-7.412-5.574Z" fill="#FBD6A0"/><path fill-rule="evenodd" clip-rule="evenodd" d="M999.855 134.006a23.525 23.525 0 0 0-11.001-6.015c.265-2.942 7.883-31.195 19.606-30.253 1.12.088 6.97 5.397 6.13 13.236-1.07 9.766-14.735 23.032-14.735 23.032ZM1064.83 135.124c4.87-5.045 11.62-6.53 11.59-6.736-.26-2.942-7.07-31.342-18.79-30.415-1.12.088-6.98 5.397-6.14 13.237 1.02 9.721 13.34 23.914 13.34 23.914Z" fill="#AE4283"/><path fill-rule="evenodd" clip-rule="evenodd" d="M1019.33 112.724c2.45.003 4.84.733 6.88 2.097a12.342 12.342 0 0 1 4.56 5.567c.94 2.266 1.18 4.758.7 7.162a12.364 12.364 0 0 1-3.4 6.345 12.376 12.376 0 0 1-13.5 2.681 12.382 12.382 0 0 1-5.57-4.567 12.411 12.411 0 0 1-2.09-6.886c0-1.63.33-3.243.95-4.748a12.362 12.362 0 0 1 2.69-4.024 12.326 12.326 0 0 1 4.03-2.687c1.5-.622 3.12-.942 4.75-.94Z" fill="#AE4283"/><path fill-rule="evenodd" clip-rule="evenodd" d="M1074.27 199.66a4.41 4.41 0 0 0 2.56-.52 4.359 4.359 0 0 0 1.82-1.876 4.41 4.41 0 0 0-7.56-4.507c-.51.732-.78 1.6-.79 2.49-.05 1.111.33 2.2 1.08 3.026a4.186 4.186 0 0 0 2.89 1.387Z" fill="#FBD6A0"/><path fill-rule="evenodd" clip-rule="evenodd" d="M1073.26 192.865c.87 0 1.68 1.191 1.81 2.677.13 1.485-.47 2.676-1.34 2.676-.87 0-1.68-1.206-1.81-2.676-.13-1.471.47-2.677 1.34-2.677Z" fill="#EDA46C"/><path fill-rule="evenodd" clip-rule="evenodd" d="M1108.79 199.66a4.415 4.415 0 0 0 4.82-4.971 4.412 4.412 0 0 0-1.1-2.371 4.36 4.36 0 0 0-2.24-1.337 4.426 4.426 0 0 0-2.61.165c-.83.317-1.55.879-2.05 1.611-.51.732-.78 1.6-.79 2.49-.05 1.111.33 2.2 1.08 3.026a4.186 4.186 0 0 0 2.89 1.387Z" fill="#FBD6A0"/><path fill-rule="evenodd" clip-rule="evenodd" d="M1109.87 192.865c-.87 0-1.69 1.191-1.83 2.677-.13 1.485.47 2.676 1.34 2.676.87 0 1.69-1.206 1.82-2.676.14-1.471-.51-2.677-1.33-2.677Z" fill="#EDA46C"/><path fill-rule="evenodd" clip-rule="evenodd" d="M1073.36 197.527c-.36-.235-4.23-6.265-1.09-14.443 3.15-8.177 10.08-4.662 10.08-4.662l-1.25 3.765c-.57 1.059-7.35 15.575-7.74 15.34Z" fill="#A95C40"/><path d="M1091.53 213.088c10.1 0 18.29-7.968 18.29-17.796 0-9.829-8.19-17.796-18.29-17.796-10.11 0-18.3 7.967-18.3 17.796 0 9.828 8.19 17.796 18.3 17.796Z" fill="#FBD6A0"/><path fill-rule="evenodd" clip-rule="evenodd" d="M1099.78 192.483a3.068 3.068 0 0 1 2.18 1.015 3.09 3.09 0 0 1 .76 2.279 3.272 3.272 0 0 1-3.71 2.53 3.11 3.11 0 0 1-1.17-.309c-.36-.179-.69-.43-.95-.736a3.063 3.063 0 0 1-.6-1.05 3.056 3.056 0 0 1-.15-1.2c.18-.804.65-1.513 1.32-1.983.68-.47 1.5-.665 2.32-.546ZM1083.51 192.262c.4.03.8.139 1.16.322.36.183.68.435.94.743a3.017 3.017 0 0 1 .72 2.244 3.225 3.225 0 0 1-1.34 2.007c-.69.471-1.54.658-2.36.523a3.061 3.061 0 0 1-2.13-1.045 3.038 3.038 0 0 1-.59-1.05 3.054 3.054 0 0 1-.15-1.2c.17-.827.66-1.554 1.36-2.029.7-.474 1.56-.659 2.39-.515Z" fill="#fff"/><path fill-rule="evenodd" clip-rule="evenodd" d="M1109.34 198.219c3.47-7.737 3.94-11.016-1.21-17.208-3.62-10.442-18.59-6.927-16.87-13.899-8.62 1.324-15.63 10.413-15.04 15.723.38 3.382 7.72 5.25 19.2 3.765 7.9-1.015 9.59-1.471 9.59-1.471 5.36 5.883 3.68 5.986 4.33 13.09Z" fill="#A95C40"/><path fill-rule="evenodd" clip-rule="evenodd" d="M1099.57 197.027c.37-.051.71-.206.99-.446.28-.241.49-.557.59-.912.11-.354.11-.731.01-1.086a1.982 1.982 0 0 0-.59-.916 1.926 1.926 0 0 0-2.06-.303c-.34.153-.62.399-.82.71-.2.31-.31.672-.31 1.041a2.063 2.063 0 0 0 2.19 1.912Z" fill="#3E3A39"/><path fill-rule="evenodd" clip-rule="evenodd" d="M1098.56 195.042c.08.013.17.008.25-.016a.52.52 0 0 0 .23-.122.598.598 0 0 0 .16-.206.716.716 0 0 0 .05-.252.716.716 0 0 0-.05-.252.607.607 0 0 0-.16-.206.52.52 0 0 0-.23-.122.573.573 0 0 0-.25-.016.61.61 0 0 0-.49.138.607.607 0 0 0-.16.206.716.716 0 0 0-.05.252c0 .087.02.173.05.252.04.08.09.15.16.206a.61.61 0 0 0 .49.138Z" fill="#EEEEEF"/><path fill-rule="evenodd" clip-rule="evenodd" d="M1096.54 192.482c1.72-.279 3.48-.254 5.19.074 1.86.515 2.71-.294.34-1.088a11.567 11.567 0 0 0-5.5-.221c-1.12.324-1.15 1.515-.03 1.235Z" fill="#A95C40"/><path fill-rule="evenodd" clip-rule="evenodd" d="M1083.16 196.718c.36-.05.7-.204.97-.441.28-.238.48-.549.58-.898.11-.349.11-.72 0-1.069-.1-.35-.3-.662-.57-.901a1.916 1.916 0 0 0-.97-.447c-.36-.052-.73 0-1.06.15-.33.15-.61.393-.81.699-.2.305-.3.661-.3 1.025.03.536.28 1.035.69 1.388.4.353.93.531 1.47.494Z" fill="#3E3A39"/><path fill-rule="evenodd" clip-rule="evenodd" d="M1082.16 194.748a.64.64 0 0 0 .24-.03.576.576 0 0 0 .21-.12.705.705 0 0 0 .15-.191.907.907 0 0 0 .06-.233.633.633 0 0 0-.66-.588.652.652 0 0 0-.46.158.695.695 0 0 0-.22.43c.02.165.1.318.22.425a.64.64 0 0 0 .46.149Z" fill="#EEEEEF"/><path fill-rule="evenodd" clip-rule="evenodd" d="M1085.26 192.35a13.268 13.268 0 0 0-4.71.074c-1.69.456-2.45-.28-.32-1 1.63-.462 3.34-.528 5-.191 1 .25 1.1 1.338.03 1.117Z" fill="#A95C40"/><path fill-rule="evenodd" clip-rule="evenodd" d="M1085.7 204.249c.11 2.514 2.62 4.529 5.71 4.529s5.59-2.015 5.71-4.529h-11.42Z" fill="#4F2211"/><path fill-rule="evenodd" clip-rule="evenodd" d="M1086.85 204.249h9.1v1.117c.01.058 0 .116-.02.17a.457.457 0 0 1-.1.147.312.312 0 0 1-.14.1.427.427 0 0 1-.16.039h-8.25a.433.433 0 0 1-.31-.139.429.429 0 0 1-.09-.147.491.491 0 0 1-.03-.17v-1.117Z" fill="#fff"/><path fill-rule="evenodd" clip-rule="evenodd" d="M1088.69 200.616c0 .662 1.31 1.191 2.84 1.191 1.53 0 2.78-.529 2.82-1.191h-5.66Z" fill="#DF9C72"/><path fill-rule="evenodd" clip-rule="evenodd" d="M1102.37 181.79a26.744 26.744 0 0 1 2.64 3.383s.64.956-4.57 2.75c-5.21 1.795-7.24 1.148-6.78 1.059.85-.421 1.67-.913 2.44-1.47a51.445 51.445 0 0 1-9.07 1.206c-4.28.088-6.08-.559-5.3-.603a9.411 9.411 0 0 0 2.53-.824c-.5.132-1.84 1.147-5.15-.279-3.31-1.427-4.75-4.692-4.1-4.413 2.93-.054 5.85-.3 8.75-.735 2.3-.353 18.61-.074 18.61-.074Z" fill="#A95C40"/><path fill-rule="evenodd" clip-rule="evenodd" d="M933.378 156.303a3.554 3.554 0 0 1 2.462 1.267 3.57 3.57 0 0 1 .818 2.645 3.706 3.706 0 0 1-4.221 2.941 3.6 3.6 0 0 1-2.467-1.266 3.596 3.596 0 0 1-.828-2.646 3.74 3.74 0 0 1 1.529-2.319 3.73 3.73 0 0 1 2.707-.622ZM913.817 159.715a3.56 3.56 0 0 1 3.28 3.897 3.72 3.72 0 0 1-4.236 2.941 3.555 3.555 0 0 1-3.137-2.494 3.583 3.583 0 0 1-.143-1.403 3.726 3.726 0 0 1 4.236-2.941Z" fill="#fff"/><path fill-rule="evenodd" clip-rule="evenodd" d="M932.437 156.994a2.384 2.384 0 0 0 .089 4.738 2.388 2.388 0 0 0 2.313-1.267 2.39 2.39 0 0 0 .26-1.354 2.412 2.412 0 0 0-2.662-2.117Z" fill="#3E3A39"/><path fill-rule="evenodd" clip-rule="evenodd" d="M931.407 157.905a.74.74 0 0 0-.616.53.738.738 0 0 0 .247.773.734.734 0 1 0 .661-1.28.738.738 0 0 0-.292-.023Z" fill="#EEEEEF"/><path fill-rule="evenodd" clip-rule="evenodd" d="M913.052 160.626a2.349 2.349 0 0 0-1.894 3.079 2.355 2.355 0 0 0 2.045 1.596 2.348 2.348 0 0 0 2.271-1.256 2.35 2.35 0 0 0 .255-1.33 2.381 2.381 0 0 0-1.738-2.03 2.38 2.38 0 0 0-.939-.059Z" fill="#3E3A39"/><path fill-rule="evenodd" clip-rule="evenodd" d="M912.038 161.597a.748.748 0 0 0-.5.266.737.737 0 0 0 .785 1.169.735.735 0 0 0-.285-1.435Z" fill="#EEEEEF"/><path fill-rule="evenodd" clip-rule="evenodd" d="M915.861 159.023a15.892 15.892 0 0 0-6.353.897c-2.192 1.001-3.368 0-.618-1.47a12.614 12.614 0 0 1 6.721-1.147c1.412.22 1.589 1.882.25 1.72Z" fill="#A95C40"/><path fill-rule="evenodd" clip-rule="evenodd" d="M919.435 171.892a5.52 5.52 0 0 0 6.166 4.097 5.52 5.52 0 0 0 4.688-5.729l-10.854 1.632Z" fill="#4F2211"/><path fill-rule="evenodd" clip-rule="evenodd" d="m920.538 171.76 8.663-1.309.176 1.221a.47.47 0 0 1-.338.559l-7.839 1.176a.467.467 0 0 1-.485-.426l-.177-1.221Z" fill="#fff"/><path fill-rule="evenodd" clip-rule="evenodd" d="M920.7 165.524c.162.824 1.589 1.338 3.265 1.162 1.677-.177 2.942-.986 2.942-1.824l-6.207.662Z" fill="#DF9C72"/><path fill-rule="evenodd" clip-rule="evenodd" d="M928.701 155.832a15.86 15.86 0 0 1 6.368-.853c2.368.367 3.236-.912.191-1.589a12.798 12.798 0 0 0-6.78.706c-1.294.603-1.088 2.265.221 1.736Z" fill="#A95C40"/><path fill-rule="evenodd" clip-rule="evenodd" d="M914.582 134.094c-16.781 4.162-15.884 17.884-14.884 19.488-.588-7.589 10.516-14.281 17.208-15.737 16.825-3.662 24.193 7.353 24.179 7.353-5.295-11.457-11.487-14.81-26.503-11.104Z" fill="#EF8200"/><path fill-rule="evenodd" clip-rule="evenodd" d="M912.332 208.808c2.323 18.869 1.073 28.576 1.073 28.576s1.074 0 2.868-.088c3.442-.118 9.604-.382 16.061-.868a94.537 94.537 0 0 0 15.531-2.603 69.999 69.999 0 0 0 3.338-.897 122.1 122.1 0 0 1-3.221-32.283v-1.132l.309.294c1.633 1.544 4.412 4.412 4.412 4.412l.574-.529 2.765-2.383s-3.603-2.485-6.574-4.574c-1.912-1.353-3.559-2.544-3.78-2.794-.221-.25-.235.559-.191 2 .073 1.985.265 5.162.294 8.354v1.617c-.088 5.986 3.133 25.003 3.133 25.003s-.809 0-2.221-.073c-1.956 0-5.045-.001-8.619.22a37.341 37.341 0 0 0-4.677.721c-6.427 1.309-14.707 3.765-16.575 2.559-1.676-1.074-2.941-19.517-3.456-30.68-.25-4.912-.382-8.412-.382-8.412s-1.339 3.735-4.28 3.368c-.662-.089-1.471-.25-2.368-.442l-1.471-.338c-1.147-.294-2.309-.618-3.265-.882l-.941-.28-1.324-.397.191 1.471h-.191v1.809h.427l.147 1.191s4.206.265 8.206.191c1.059 0 2.104 0 3.06-.147.132.868.264 1.809.411 2.839.265 1.5.486 3.235.736 5.177Z" fill="#7567AA"/><path fill-rule="evenodd" clip-rule="evenodd" d="M902.154 152.39a60.184 60.184 0 0 0 1.809 14.987c1.986 7.133 7.604 17.369 7.148 16.958-.456-.412-6.456-3.971-9.354-8.163-2.897-4.192-3.412-18.281-3.412-18.281l3.809-5.501ZM938.981 144.904a60.86 60.86 0 0 1 4.192 14.516c.971 7.354-.206 18.958 0 18.399.206-.559 4.412-6.177 5.412-11.163 1-4.986-4.029-18.163-4.029-18.163l-5.575-3.589Z" fill="#763A20"/><path fill-rule="evenodd" clip-rule="evenodd" d="M986.325 179.717c2.353-11.207 4.882-30.739 6.559-35.607a58.534 58.534 0 0 1 6.236-10.766 19.854 19.854 0 0 0-3.147-2.412 89.17 89.17 0 0 1-4.971 9.016c-3.501 5.706-5.53 27.723-6.075 31.606a62.718 62.718 0 0 0-.367 6.824v8.251c0 .927 0 1.75.103 2.397.012.494.066.986.161 1.471.177.588 0 .456-.25.118-.25-.339-.808-1.25-.808-1.25l-1.589 2.044-.706.882-1.176 1.471-1.677 2.015a2.49 2.49 0 0 1-1.736.838 4.784 4.784 0 0 1-.794 0 10.01 10.01 0 0 1-3.206-1.059 4.984 4.984 0 0 0 1.912 3.177 3.865 3.865 0 0 0 4.103.441c2.192-1.103 4.163-4.956 4.971-5.883 0 0 .456 3.398 1.751 1.192 1.294-2.206.735-14.708.735-14.708l-.029-.058Z" fill="#F7CD8D"/><path fill-rule="evenodd" clip-rule="evenodd" d="M1007.43 121.152c-1.21 1.765-5.22 7.471-6.41 7.353-1.473-.117-4.989 2.412-4.989 2.412a19.816 19.816 0 0 1 3.148 2.412c.235.206.456.427.676.662a84.471 84.471 0 0 0 7.115-8.059 12.38 12.38 0 0 0 1.32 4.799 12.196 12.196 0 0 0 3.1 3.893 33.07 33.07 0 0 0 6.79 2.794c.87.265 1.82.544 2.85.809 6.74 1.75 12.08-1.75 13.01-1.471.92.28 13.53 1.662 16.48.544a12.616 12.616 0 0 0 4.64-2.941 12.567 12.567 0 0 0 4.78-5.53c2.61 3.691 4.83 6.251 4.83 6.251l.25-.25a21.08 21.08 0 0 1 1.83-1.618 64.513 64.513 0 0 0-3.49-5.266 23.758 23.758 0 0 1-2.4-4.073 104.209 104.209 0 0 1-3.11-7.031c-.3-.691-.56-1.382-.81-2.044l-.58-1.588c0 .397.14.809.2 1.235.26 1.691.51 3.603.72 5.442a.924.924 0 0 0 0 .235c.08.853.16 1.691.23 2.486.1 1.176.16 2.235.16 3.103.05.673-.01 1.349-.19 2a6.401 6.401 0 0 1-1.76 2.089 15.53 15.53 0 0 1-9.93 3.441c-2.27 0-4.28-.25-5.88-.456a27.034 27.034 0 0 1-4.84-.926c-.53-.221-3.31.926-6.71 1.647-2.6.651-5.31.717-7.94.191-6.03-1.471-6.18-3.589-8.66-8.104a13.223 13.223 0 0 1-1.21-4.941 41.095 41.095 0 0 1-.13-4.001v-.265c.06-2.656.26-5.307.6-7.942l-3.38 12.222s-.09.177-.31.486Z" fill="#A93F80"/><path fill-rule="evenodd" clip-rule="evenodd" d="M1065.08 134.815c4.08 7.486 8.44 14.943 11.09 17.81 4.63 5.03 9.47 9.913 14.5 14.59l.59-.103c0 .191 0 .383-.1.559l3.72 3.368.72-4c-2.4-1.986-6.57-5.221-11.12-9.222-5.1-4.486-12.91-17.222-17.65-24.62-.61.505-1.2 1.045-1.75 1.618Z" fill="#F7CD8D"/><path fill-rule="evenodd" clip-rule="evenodd" d="m1095.6 167.039-.72 4-.13.721c.5.191 1.03.382 1.59.559 1.64.496 3.26 1.075 4.85 1.735l.41-1.544c-3.38-2.412-3.41-3.309-6-5.471ZM1101.6 172.51l-.41 1.544c1.54.571 2.95 1.459 4.12 2.607a11.733 11.733 0 0 1 2.72 4.056l.1-.133s.75.794 1.57 1.75c0-.308.11-.603.15-.911a18.925 18.925 0 0 0-6.1-7.354l-2.15-1.559Z" fill="#FAD297"/><path fill-rule="evenodd" clip-rule="evenodd" d="M1011.33 134.653c3.34 16.502-4.8 18.075-5.42 38.239l.95.133a194.87 194.87 0 0 0 35.76 2.132s-5.19-4.574-15.5-6.78c-5.06-1.088-8.53-1.471-10.47-3.03-1.94-1.559-2.37-4.324-1.15-10.295a80.581 80.581 0 0 1 5.23-16.899 57.33 57.33 0 0 1-2.55-.72 12.23 12.23 0 0 1-6.79-2.795l-.06.015Z" fill="#A93F80"/><path fill-rule="evenodd" clip-rule="evenodd" d="M1034.17 240.135c-2.78 18.531 2.06 45.107 2.67 55.888 1.09.049 2.17-.005 3.24-.162-.1-1.133-.25-2.603-.41-4.309-1.09-11.149-2.94-32.357-2.46-37.843.38-3.809 1.47-10.074 2.52-15.369l-5.71.103c.04.78.1 1.368.15 1.692ZM1020.93 300.788c-.13-1.927-.28-4.177-.38-5.986 1.84-18.208 5.97-34.474 5.5-54.624l.19-1.617-14.59.264v2.574c2.5-.088 10.68-.309 11.08.868.39 1.177-5.99 41.548-5.45 46.343.12.926.24 1.824.36 2.677.19 1.279.36 2.456.51 3.471a7.789 7.789 0 0 1 0 3.529 19.132 19.132 0 0 1-4.41 2.765l7.19-.264Z" fill="#F6CA87"/><path fill-rule="evenodd" clip-rule="evenodd" d="M960.425 205.043a20.7 20.7 0 0 1-5.295-2.942l-1.721 1.574a20.174 20.174 0 0 0 6.545 4.28c4.986-.647 11.119-5.692 14.884-9.281a4.877 4.877 0 0 1-.926-.912c-2.53 1.662-11.752 7.678-13.487 7.281Z" fill="#FACE91"/><path fill-rule="evenodd" clip-rule="evenodd" d="M1085.66 254.915a6.648 6.648 0 0 1-4.53-4.132 23.81 23.81 0 0 1-1.65-7.104c-.56-5.162-1.66-19.811-1.66-19.811s-1.75 1.103-5.78-2.5c-2.94-2.633-3.05-4.662-2.94-5.574l-1.25 4.177-.53 1.72 8.94 6.119-.37 30.591h2.15l17.49-.647s-5.55-1.824-9.87-2.839ZM1098.64 227.089c0 1.103 1.59 15.752 3.59 21.841.51 1.552.78 3.174.8 4.809a19.86 19.86 0 0 1-.31 3.691h1.66l1.8-.073s-4.15-29.944-2.86-30.312c1.3-.368 11.47-6.457 11.47-6.457s-.29-.97-.67-2.309c-5.14 2.53-15.48 8.031-15.48 8.81Z" fill="#B1982F"/><path fill-rule="evenodd" clip-rule="evenodd" d="M1067.22 217.485a26.566 26.566 0 0 1-8.12-4.971 30.81 30.81 0 0 1-2.68-2.942l-1.47-1.853c-2.81-3.574-5.68-7.603-5.68-7.603a3.775 3.775 0 0 1-2.51-.574 8.935 8.935 0 0 1-2.69-2.794l-5.3-3.957v.28c.38 1.191 4.57 4.412 4.57 4.412 1.12 1.633 2.43 3.28 4.31 3.618 1.64 2.339 4.42 6.236 7 9.354.49.603.98 1.177 1.48 1.691.83.974 1.76 1.865 2.76 2.662a67.068 67.068 0 0 0 9.12 5.207l1.25-4.177c.03-.184.08-.362.16-.53 0 0-1.65 2.177-2.2 2.177Z" fill="#F6C987"/><path fill-rule="evenodd" clip-rule="evenodd" d="M1117.88 115.886a602.54 602.54 0 0 1 .99 63.036c.37.177.78.338 1.22.5 10.03 3.501 38.12 1.824 45.74-1.294 1.13-26.65 2.51-47.814 3.82-64.095l2.84 9.501.63-.368 9.87-5.691 1-.574-.44-1.603-.97.412c-3.06 1.294-7.19 2.941-8.09 3.147-.65.133-2.31-3.985-3.98-8.692-2.15-5.986-4.3-12.928-4.42-13.237-.19-.544 1.75 15.487 1.66 16.032-.08.544-3.41 39.121-5.01 55.888-.4 4.118-.69 6.912-.79 7.456-.56 2.765-34.1.191-35.93-.544-.3-.118-.61-1.691-.92-4.265-1.7-13.884-3.63-56.991-3.79-57.844-.16-.853-.91-19.811-.91-19.811l-3.18 15.443-1.38 6.883s-2.31-.839-3.5-.103c-.65.397-3.64-.118-6.77-.706l-1.59-.324-.82 2.765 1.84.397 10.75 2.324.71.147 1.42-4.78Z" fill="#4FA84A"/><path fill-rule="evenodd" clip-rule="evenodd" d="M1122.41 55.13c2.94 0 5.24-2.941 5.24-6.589 0-3.647-2.36-6.574-5.24-6.574-2.88 0-5.23 2.942-5.23 6.574 0 3.633 2.35 6.59 5.23 6.59Z" fill="#FBD6A0"/><path fill-rule="evenodd" clip-rule="evenodd" d="M1121.06 44.909c1.15 0 2.22 1.809 2.4 4.03.17 2.22-.62 4.014-1.77 4.014s-2.22-1.794-2.38-4.015c-.16-2.22.62-4.03 1.75-4.03Z" fill="#EDA46C"/><path fill-rule="evenodd" clip-rule="evenodd" d="M1167.86 55.13c2.94 0 5.23-2.941 5.23-6.589 0-3.647-2.35-6.574-5.23-6.574-2.88 0-5.24 2.942-5.24 6.574 0 3.633 2.36 6.59 5.24 6.59Z" fill="#FBD6A0"/><path fill-rule="evenodd" clip-rule="evenodd" d="M1169.2 44.909c-1.15 0-2.22 1.809-2.39 4.03-.16 2.22.61 4.014 1.75 4.014 1.15 0 2.22-1.794 2.4-4.015.18-2.22-.62-4.03-1.76-4.03Z" fill="#EDA46C"/><path fill-rule="evenodd" clip-rule="evenodd" d="M1121.22 51.924c-.5-.368-2.73-15.207-2.73-16.781 0-1.574 4.82-7.354 4.82-7.354l4.1 5.471c-.76 1.589-5.69 19.017-6.19 18.664Z" fill="#A95C40"/><path fill-rule="evenodd" clip-rule="evenodd" d="M1145.16 21.877c-13.23 0-24.07 11.957-24.07 26.708 0 14.752 10.72 26.694 24.07 26.694 13.36 0 24.1-11.957 24.1-26.708 0-14.752-10.86-26.694-24.1-26.694Z" fill="#FBD6A0"/><path fill-rule="evenodd" clip-rule="evenodd" d="M1121.12 50.85c1.04 13.678 12.09 24.43 23.99 24.43 11.89 0 20.59-8.457 23.29-19.93.3-2.161.47-3.72.47-3.72-1.1 3.294-4 14.31-10.37 16.075-2 .544-2.72-7.104-4.66-7.971-1.94-.868-4.56.411-8.47.456-3.91.044-5.88-1.015-8.02-.5-2.13.514-3.45 7.544-4.28 7.5-7.64-.382-11.69-15.78-11.95-16.34Zm23.75 11.766 7.59-.632c.03 2.064-.24 4.122-.82 6.103-1.81 5-13.42 3.618-14.27-.838-.37-1.739-.34-3.538.07-5.265l7.43.632Z" fill="#F5B386"/><path fill-rule="evenodd" clip-rule="evenodd" d="M1134.38 44.408c.55.03 1.09.169 1.58.407.5.239.94.573 1.3.983.36.41.64.889.82 1.408.18.519.25 1.067.22 1.615a4.453 4.453 0 0 1-1.83 2.744c-.94.644-2.09.9-3.22.712a4.183 4.183 0 0 1-1.59-.423c-.5-.245-.94-.588-1.3-1.007-.37-.42-.64-.907-.82-1.434a4.316 4.316 0 0 1-.19-1.636 4.435 4.435 0 0 1 1.85-2.683 4.408 4.408 0 0 1 3.18-.686ZM1156.42 44.585c.55.032 1.09.173 1.59.417a4.162 4.162 0 0 1 2.3 4.068 4.41 4.41 0 0 1-5.03 3.456c-.55-.029-1.09-.17-1.59-.412a4.188 4.188 0 0 1-2.13-2.435 4.13 4.13 0 0 1-.19-1.638c.23-1.116.89-2.1 1.83-2.743a4.41 4.41 0 0 1 3.22-.713Z" fill="#fff"/><path fill-rule="evenodd" clip-rule="evenodd" d="M1168.95 52.453c.14 1.604 2.85-17.045 2.85-18.604 0-1.56-4.82-7.354-4.82-7.354a25.872 25.872 0 0 0-2.08-7.045c-6.9-12.884-41.59 1.706-51.27-2.662-.15-.073-2.22 22.061 36.61 17.06 10.41-1.338 12.63-1.882 12.63-1.882 7.05 7.721 5.21 11.134 6.08 20.487Z" fill="#A95C40"/><path fill-rule="evenodd" clip-rule="evenodd" d="M1155.71 51.174c.56-.015 1.1-.193 1.56-.514.46-.32.82-.77 1.03-1.29.21-.521.26-1.091.14-1.64a2.819 2.819 0 0 0-.78-1.451c-.39-.397-.9-.668-1.45-.781a2.864 2.864 0 0 0-3.44 2.734 2.939 2.939 0 0 0 2.94 2.942Z" fill="#3E3A39"/><path fill-rule="evenodd" clip-rule="evenodd" d="M1154.37 48.174a.897.897 0 0 0 .49-.156.947.947 0 0 0 .32-.4.884.884 0 0 0 .04-.508.94.94 0 0 0-.24-.448.935.935 0 0 0-.46-.237.857.857 0 0 0-.5.052c-.16.068-.3.18-.4.325a.939.939 0 0 0-.15.49.87.87 0 0 0 .27.63.868.868 0 0 0 .63.253Z" fill="#EEEEEF"/><path fill-rule="evenodd" clip-rule="evenodd" d="M1151.72 44.423c2.26-.423 4.58-.388 6.83.103 2.45.765 3.56-.441.45-1.632a13.543 13.543 0 0 0-7.25-.324c-1.45.412-1.5 2.206-.03 1.853Z" fill="#A95C40"/><path fill-rule="evenodd" clip-rule="evenodd" d="M1134.1 50.703a2.87 2.87 0 0 0 1.57-.49 2.837 2.837 0 0 0 1.17-2.902 2.78 2.78 0 0 0-.78-1.438 2.808 2.808 0 0 0-3.07-.6c-.52.215-.96.577-1.26 1.04a2.822 2.822 0 0 0-.48 1.567c0 .372.08.741.22 1.085.15.343.36.655.62.917a2.867 2.867 0 0 0 2.01.821Z" fill="#3E3A39"/><path fill-rule="evenodd" clip-rule="evenodd" d="M1132.78 47.762c.18 0 .35-.052.49-.149a.882.882 0 0 0 .33-.396.983.983 0 0 0 .05-.51.892.892 0 0 0-.25-.452.883.883 0 0 0-.96-.191c-.16.067-.3.18-.39.325a.86.86 0 0 0-.15.49c0 .234.09.459.26.624a.87.87 0 0 0 .62.259Z" fill="#EEEEEF"/><path fill-rule="evenodd" clip-rule="evenodd" d="M1136.87 44.144c-2.06-.375-4.17-.34-6.21.103-2.22.706-3.22-.397-.41-1.47 2.13-.691 4.4-.793 6.58-.295 1.32.368 1.36 2 .04 1.662Z" fill="#A95C40"/><path fill-rule="evenodd" clip-rule="evenodd" d="M1137.44 61.925a7.568 7.568 0 0 0 2.45 4.848 7.522 7.522 0 0 0 5.06 1.953c1.87 0 3.68-.696 5.07-1.953a7.603 7.603 0 0 0 2.44-4.848h-15.02Z" fill="#4F2211"/><path fill-rule="evenodd" clip-rule="evenodd" d="M1138.96 61.925h11.98v1.677a.575.575 0 0 1-.14.45.615.615 0 0 1-.41.226h-10.86a.616.616 0 0 1-.42-.22.632.632 0 0 1-.15-.456v-1.677Z" fill="#fff"/><path fill-rule="evenodd" clip-rule="evenodd" d="M1141.38 56.557c0 .985 1.71 1.78 3.73 1.78 2.01 0 3.66-.795 3.73-1.78h-7.46Z" fill="#DF9C72"/><path fill-rule="evenodd" clip-rule="evenodd" d="M1113.63 16.788a15.089 15.089 0 0 0 7.65 13.37c1.44.885 2.98 1.605 4.59 2.146l1.47.456c6.85 2 40.19 3.677 39.71-6.544 0 0-2.77.603-6.93 1.132l-2.69.294a37.01 37.01 0 0 1-13.74-2.03 20.365 20.365 0 0 0 4.2 2.942c.83.265-.74.177-4.98-.426-2.14-.295-6.58-1.471-10.5-2.442-3.91-.97-7.1-1.956-7.23-2.015a35.287 35.287 0 0 0 3.09 4.089c.36.323-1.75-.368-6.83-3.868a34.271 34.271 0 0 1-7.78-7.354l-.03.25Z" fill="#9F553D"/><path fill-rule="evenodd" clip-rule="evenodd" d="M1026.27 35.54c.35.662 3.54 4.118 10.3 8.192 6.75 4.074 18.16 7.089 18.09 6.706-.08-.382-6.58-5.53-6.05-5.265.53.265 8.05 2.427 7.46 2.515-.59.088-6.65-7.824-6.65-7.824l6.32 2.25a21.358 21.358 0 0 0-6.53-8.471c-4.41-3.104-17.92-4.163-17.31-4.03.62.132 7.17 3.677 7.17 3.677a41.826 41.826 0 0 0-15.87-1.75c.35 0 7.35 2.867 7.35 2.867l-5.88-1.058 1.6 2.19ZM1022.37 42.982c-.37 1.206-2.04 4-6.45 12.163-4.42 8.163-6.81 9.957-6.81 9.957s1.01 6.956 2.16 13.148c1.15 6.192 5.4 15.325 4.28 14.031a93.5 93.5 0 0 1-7.55-17.87c-1.11-4.706-1.29-6.632-1.29-5.985 0 .647.37 10.03.37 8.824 0-1.206-3.87-11.472-3.42-18.987.46-7.515 1.21-9.486 1.21-9.486s.21 4.544.18 4.191a47.907 47.907 0 0 1 6.13-12.619c3.18-4.015 5.02-5.397 4.56-4.882-.46.514-3.12 9.839-2.94 9.31.17-.53 6.03-9.134 5.88-8.62-.15.516-1.34 4.413-3.26 9.855-1.93 5.441-3.78 9.31-2.95 8.574.84-.735 9.9-11.604 9.9-11.604ZM1054.7 76.206c-2.44 8.162-5.4 13.957-4.75 13.045.65-.912 3.69-5.72 3.45-4.838-.23.882-2.35 8.824-1.89 8.015.45-.809 6.2-16.987 7.35-23.532.63-4.922.55-9.908-.22-14.81 0 .5-.37 9.766-.32 8.295a46.391 46.391 0 0 0-1.75-8.075c.71 7.353.08 14.774-1.87 21.9Z" fill="#7D4025"/><path fill-rule="evenodd" clip-rule="evenodd" d="M1088.79 181.673c-1.04-1.28-2.65-3.78-1.68-5.457-1.67.162-3.53 3.03-3.72 3.589.11-1.79.51-3.549 1.19-5.207 1.31-2.941 5.09-6.177 6.31-7.177l.37-.309-.59.103c-10.04 1.986-19.44 15.855-12.87 18.973.11 0-.39.073 1.31.809 1.67.505 3.44.601 5.15.279-.8.393-1.65.67-2.53.824-.78 0 1.02.691 5.3.603 3.05-.131 6.09-.535 9.07-1.206-.77.557-1.59 1.049-2.44 1.471-.46.088 1.57.735 6.78-1.059.6-.221 1.15-.412 1.6-.603a50.59 50.59 0 0 0 2.94-2.148s-1.98-1.838-3.61-3.397h-.77l1.74 2.736a9.378 9.378 0 0 1-5.58.382c-2.94-.794-4.56-3.206-4.91-3.206-.35 0 0 2.691 0 2.691s-.41 0-2.12-1.662c-.33-.326-.64-.67-.94-1.029Z" fill="#A5573B"/></g><defs><linearGradient id="a" x1="-13.373" y1="-.656" x2="-4.548" y2="194.056" gradientUnits="userSpaceOnUse"><stop stop-color="#FEA244"/><stop offset="1" stop-color="#FD9147"/></linearGradient><linearGradient id="c" x1="979.103" y1="188.938" x2="983.001" y2="198.277" gradientUnits="userSpaceOnUse"><stop stop-color="#FBE5D5"/><stop offset="1" stop-color="#F8CAA8"/></linearGradient></defs></svg>